<svg width="343" height="153" viewBox="0 0 343 153" fill="none" xmlns="http://www.w3.org/2000/svg">
<rect width="343" height="153" fill="white"/>
<path d="M70.106 75.884C70.718 75.0227 71.5567 74.3087 72.622 73.742C73.71 73.1527 74.9453 72.858 76.328 72.858C77.9373 72.858 79.388 73.2547 80.68 74.048C81.9947 74.8413 83.026 75.9747 83.774 77.448C84.5447 78.8987 84.93 80.5873 84.93 82.514C84.93 84.4407 84.5447 86.152 83.774 87.648C83.026 89.1213 81.9947 90.266 80.68 91.082C79.388 91.898 77.9373 92.306 76.328 92.306C74.9453 92.306 73.7213 92.0227 72.656 91.456C71.6133 90.8893 70.7633 90.1753 70.106 89.314V100.976H65.346V73.164H70.106V75.884ZM80.068 82.514C80.068 81.3807 79.83 80.406 79.354 79.59C78.9007 78.7513 78.2887 78.1167 77.518 77.686C76.77 77.2553 75.954 77.04 75.07 77.04C74.2087 77.04 73.3927 77.2667 72.622 77.72C71.874 78.1507 71.262 78.7853 70.786 79.624C70.3327 80.4627 70.106 81.4487 70.106 82.582C70.106 83.7153 70.3327 84.7013 70.786 85.54C71.262 86.3787 71.874 87.0247 72.622 87.478C73.3927 87.9087 74.2087 88.124 75.07 88.124C75.954 88.124 76.77 87.8973 77.518 87.444C78.2887 86.9907 78.9007 86.3447 79.354 85.506C79.83 84.6673 80.068 83.67 80.068 82.514ZM93.149 76.088C93.761 75.0907 94.5543 74.3087 95.529 73.742C96.5263 73.1753 97.6596 72.892 98.929 72.892V77.89H97.671C96.175 77.89 95.0416 78.2413 94.271 78.944C93.523 79.6467 93.149 80.8707 93.149 82.616V92H88.389V73.164H93.149V76.088ZM110.499 92.306C108.686 92.306 107.054 91.9093 105.603 91.116C104.152 90.3 103.008 89.1553 102.169 87.682C101.353 86.2087 100.945 84.5087 100.945 82.582C100.945 80.6553 101.364 78.9553 102.203 77.482C103.064 76.0087 104.232 74.8753 105.705 74.082C107.178 73.266 108.822 72.858 110.635 72.858C112.448 72.858 114.092 73.266 115.565 74.082C117.038 74.8753 118.194 76.0087 119.033 77.482C119.894 78.9553 120.325 80.6553 120.325 82.582C120.325 84.5087 119.883 86.2087 118.999 87.682C118.138 89.1553 116.959 90.3 115.463 91.116C113.99 91.9093 112.335 92.306 110.499 92.306ZM110.499 88.158C111.36 88.158 112.165 87.954 112.913 87.546C113.684 87.1153 114.296 86.4807 114.749 85.642C115.202 84.8033 115.429 83.7833 115.429 82.582C115.429 80.7913 114.953 79.42 114.001 78.468C113.072 77.4933 111.927 77.006 110.567 77.006C109.207 77.006 108.062 77.4933 107.133 78.468C106.226 79.42 105.773 80.7913 105.773 82.582C105.773 84.3727 106.215 85.7553 107.099 86.73C108.006 87.682 109.139 88.158 110.499 88.158ZM122.593 82.514C122.593 80.61 122.967 78.9213 123.715 77.448C124.485 75.9747 125.528 74.8413 126.843 74.048C128.157 73.2547 129.619 72.858 131.229 72.858C132.453 72.858 133.62 73.13 134.731 73.674C135.841 74.1953 136.725 74.898 137.383 75.782V66.84H142.211V92H137.383V89.212C136.793 90.1413 135.966 90.8893 134.901 91.456C133.835 92.0227 132.6 92.306 131.195 92.306C129.608 92.306 128.157 91.898 126.843 91.082C125.528 90.266 124.485 89.1213 123.715 87.648C122.967 86.152 122.593 84.4407 122.593 82.514ZM137.417 82.582C137.417 81.426 137.19 80.44 136.737 79.624C136.283 78.7853 135.671 78.1507 134.901 77.72C134.13 77.2667 133.303 77.04 132.419 77.04C131.535 77.04 130.719 77.2553 129.971 77.686C129.223 78.1167 128.611 78.7513 128.135 79.59C127.681 80.406 127.455 81.3807 127.455 82.514C127.455 83.6473 127.681 84.6447 128.135 85.506C128.611 86.3447 129.223 86.9907 129.971 87.444C130.741 87.8973 131.557 88.124 132.419 88.124C133.303 88.124 134.13 87.9087 134.901 87.478C135.671 87.0247 136.283 86.39 136.737 85.574C137.19 84.7353 137.417 83.738 137.417 82.582ZM164.642 73.164V92H159.848V89.62C159.236 90.436 158.431 91.082 157.434 91.558C156.459 92.0113 155.394 92.238 154.238 92.238C152.764 92.238 151.461 91.932 150.328 91.32C149.194 90.6853 148.299 89.7673 147.642 88.566C147.007 87.342 146.69 85.8913 146.69 84.214V73.164H151.45V83.534C151.45 85.03 151.824 86.186 152.572 87.002C153.32 87.7953 154.34 88.192 155.632 88.192C156.946 88.192 157.978 87.7953 158.726 87.002C159.474 86.186 159.848 85.03 159.848 83.534V73.164H164.642ZM168.114 82.582C168.114 80.6327 168.511 78.9327 169.304 77.482C170.098 76.0087 171.197 74.8753 172.602 74.082C174.008 73.266 175.617 72.858 177.43 72.858C179.765 72.858 181.692 73.4473 183.21 74.626C184.752 75.782 185.783 77.414 186.304 79.522H181.17C180.898 78.706 180.434 78.0713 179.776 77.618C179.142 77.142 178.348 76.904 177.396 76.904C176.036 76.904 174.96 77.4027 174.166 78.4C173.373 79.3747 172.976 80.7687 172.976 82.582C172.976 84.3727 173.373 85.7667 174.166 86.764C174.96 87.7387 176.036 88.226 177.396 88.226C179.323 88.226 180.581 87.3647 181.17 85.642H186.304C185.783 87.682 184.752 89.3027 183.21 90.504C181.669 91.7053 179.742 92.306 177.43 92.306C175.617 92.306 174.008 91.9093 172.602 91.116C171.197 90.3 170.098 89.1667 169.304 87.716C168.511 86.2427 168.114 84.5313 168.114 82.582ZM195.333 77.074V86.186C195.333 86.8207 195.481 87.2853 195.775 87.58C196.093 87.852 196.614 87.988 197.339 87.988H199.549V92H196.557C192.545 92 190.539 90.0507 190.539 86.152V77.074H188.295V73.164H190.539V68.506H195.333V73.164H199.549V77.074H195.333ZM210.181 92.306C208.64 92.306 207.257 92.034 206.033 91.49C204.809 90.9233 203.834 90.164 203.109 89.212C202.406 88.26 202.021 87.206 201.953 86.05H206.747C206.838 86.7753 207.189 87.376 207.801 87.852C208.436 88.328 209.218 88.566 210.147 88.566C211.054 88.566 211.756 88.3847 212.255 88.022C212.776 87.6593 213.037 87.1947 213.037 86.628C213.037 86.016 212.72 85.5627 212.085 85.268C211.473 84.9507 210.487 84.6107 209.127 84.248C207.722 83.908 206.566 83.5567 205.659 83.194C204.775 82.8313 204.004 82.276 203.347 81.528C202.712 80.78 202.395 79.7713 202.395 78.502C202.395 77.4593 202.69 76.5073 203.279 75.646C203.891 74.7847 204.752 74.1047 205.863 73.606C206.996 73.1073 208.322 72.858 209.841 72.858C212.085 72.858 213.876 73.4247 215.213 74.558C216.55 75.6687 217.287 77.176 217.423 79.08H212.867C212.799 78.332 212.482 77.7427 211.915 77.312C211.371 76.8587 210.634 76.632 209.705 76.632C208.844 76.632 208.175 76.7907 207.699 77.108C207.246 77.4253 207.019 77.8673 207.019 78.434C207.019 79.0687 207.336 79.556 207.971 79.896C208.606 80.2133 209.592 80.542 210.929 80.882C212.289 81.222 213.411 81.5733 214.295 81.936C215.179 82.2987 215.938 82.8653 216.573 83.636C217.23 84.384 217.57 85.3813 217.593 86.628C217.593 87.716 217.287 88.6907 216.675 89.552C216.086 90.4133 215.224 91.0933 214.091 91.592C212.98 92.068 211.677 92.306 210.181 92.306ZM226.26 75.884C226.872 75.0227 227.711 74.3087 228.776 73.742C229.864 73.1527 231.1 72.858 232.482 72.858C234.092 72.858 235.542 73.2547 236.834 74.048C238.149 74.8413 239.18 75.9747 239.928 77.448C240.699 78.8987 241.084 80.5873 241.084 82.514C241.084 84.4407 240.699 86.152 239.928 87.648C239.18 89.1213 238.149 90.266 236.834 91.082C235.542 91.898 234.092 92.306 232.482 92.306C231.1 92.306 229.876 92.0227 228.81 91.456C227.768 90.8893 226.918 90.1753 226.26 89.314V100.976H221.5V73.164H226.26V75.884ZM236.222 82.514C236.222 81.3807 235.984 80.406 235.508 79.59C235.055 78.7513 234.443 78.1167 233.672 77.686C232.924 77.2553 232.108 77.04 231.224 77.04C230.363 77.04 229.547 77.2667 228.776 77.72C228.028 78.1507 227.416 78.7853 226.94 79.624C226.487 80.4627 226.26 81.4487 226.26 82.582C226.26 83.7153 226.487 84.7013 226.94 85.54C227.416 86.3787 228.028 87.0247 228.776 87.478C229.547 87.9087 230.363 88.124 231.224 88.124C232.108 88.124 232.924 87.8973 233.672 87.444C234.443 86.9907 235.055 86.3447 235.508 85.506C235.984 84.6673 236.222 83.67 236.222 82.514ZM255.151 72.892C256.579 72.892 257.849 73.2093 258.959 73.844C260.07 74.456 260.931 75.374 261.543 76.598C262.178 77.7993 262.495 79.25 262.495 80.95V92H257.735V81.596C257.735 80.1 257.361 78.9553 256.613 78.162C255.865 77.346 254.845 76.938 253.553 76.938C252.239 76.938 251.196 77.346 250.425 78.162C249.677 78.9553 249.303 80.1 249.303 81.596V92H244.543V66.84H249.303V75.51C249.915 74.694 250.731 74.0593 251.751 73.606C252.771 73.13 253.905 72.892 255.151 72.892ZM284.532 82.174C284.532 82.854 284.486 83.466 284.396 84.01H270.626C270.739 85.37 271.215 86.4353 272.054 87.206C272.892 87.9767 273.924 88.362 275.148 88.362C276.916 88.362 278.174 87.6027 278.922 86.084H284.056C283.512 87.8973 282.469 89.3933 280.928 90.572C279.386 91.728 277.494 92.306 275.25 92.306C273.436 92.306 271.804 91.9093 270.354 91.116C268.926 90.3 267.804 89.1553 266.988 87.682C266.194 86.2087 265.798 84.5087 265.798 82.582C265.798 80.6327 266.194 78.9213 266.988 77.448C267.781 75.9747 268.892 74.8413 270.32 74.048C271.748 73.2547 273.391 72.858 275.25 72.858C277.04 72.858 278.638 73.2433 280.044 74.014C281.472 74.7847 282.571 75.884 283.342 77.312C284.135 78.7173 284.532 80.338 284.532 82.174ZM279.602 80.814C279.579 79.59 279.137 78.6153 278.276 77.89C277.414 77.142 276.36 76.768 275.114 76.768C273.935 76.768 272.938 77.1307 272.122 77.856C271.328 78.5587 270.841 79.5447 270.66 80.814H279.602ZM292.766 76.088C293.378 75.0907 294.171 74.3087 295.146 73.742C296.143 73.1753 297.277 72.892 298.546 72.892V77.89H297.288C295.792 77.89 294.659 78.2413 293.888 78.944C293.14 79.6467 292.766 80.8707 292.766 82.616V92H288.006V73.164H292.766V76.088ZM319.262 82.174C319.262 82.854 319.217 83.466 319.126 84.01H305.356C305.47 85.37 305.946 86.4353 306.784 87.206C307.623 87.9767 308.654 88.362 309.878 88.362C311.646 88.362 312.904 87.6027 313.652 86.084H318.786C318.242 87.8973 317.2 89.3933 315.658 90.572C314.117 91.728 312.224 92.306 309.98 92.306C308.167 92.306 306.535 91.9093 305.084 91.116C303.656 90.3 302.534 89.1553 301.718 87.682C300.925 86.2087 300.528 84.5087 300.528 82.582C300.528 80.6327 300.925 78.9213 301.718 77.448C302.512 75.9747 303.622 74.8413 305.05 74.048C306.478 73.2547 308.122 72.858 309.98 72.858C311.771 72.858 313.369 73.2433 314.774 74.014C316.202 74.7847 317.302 75.884 318.072 77.312C318.866 78.7173 319.262 80.338 319.262 82.174ZM314.332 80.814C314.31 79.59 313.868 78.6153 313.006 77.89C312.145 77.142 311.091 76.768 309.844 76.768C308.666 76.768 307.668 77.1307 306.852 77.856C306.059 78.5587 305.572 79.5447 305.39 80.814H314.332Z" fill="black"/>
<path d="M62.1114 69.9538L56.1441 102.317L31.1002 80.9676L62.1114 69.9538Z" fill="#BDD4FF"/>
<path d="M58.9028 66.315L53.425 96.0234L30.4356 76.4253L58.9028 66.315Z" fill="#2670FF"/>
</svg>
